<mxfile host="app.diagrams.net" agent="Mozilla/5.0 (Windows NT 10.0; Win64; x64) AppleWebKit/537.36 (KHTML, like Gecko) Chrome/134.0.0.0 Safari/537.36 Edg/134.0.0.0" version="26.0.16">
  <diagram name="第 1 页" id="aSoyx7eQRRdXt0aU0b2Q">
    <mxGraphModel dx="1226" dy="1074" grid="0" gridSize="10" guides="1" tooltips="1" connect="1" arrows="1" fold="1" page="0" pageScale="1" pageWidth="827" pageHeight="1169" math="0" shadow="0">
      <root>
        <mxCell id="0" />
        <mxCell id="1" parent="0" />
        <mxCell id="sA6tGmenvZJOmAFu46Z8-11" style="edgeStyle=orthogonalEdgeStyle;rounded=0;orthogonalLoop=1;jettySize=auto;html=1;" edge="1" parent="1" source="sA6tGmenvZJOmAFu46Z8-1" target="sA6tGmenvZJOmAFu46Z8-10">
          <mxGeometry relative="1" as="geometry" />
        </mxCell>
        <mxCell id="sA6tGmenvZJOmAFu46Z8-28" style="edgeStyle=orthogonalEdgeStyle;rounded=0;orthogonalLoop=1;jettySize=auto;html=1;" edge="1" parent="1" source="sA6tGmenvZJOmAFu46Z8-1" target="sA6tGmenvZJOmAFu46Z8-27">
          <mxGeometry relative="1" as="geometry" />
        </mxCell>
        <mxCell id="sA6tGmenvZJOmAFu46Z8-32" style="edgeStyle=orthogonalEdgeStyle;rounded=0;orthogonalLoop=1;jettySize=auto;html=1;exitX=0.5;exitY=0;exitDx=0;exitDy=0;" edge="1" parent="1" source="sA6tGmenvZJOmAFu46Z8-1" target="sA6tGmenvZJOmAFu46Z8-31">
          <mxGeometry relative="1" as="geometry" />
        </mxCell>
        <mxCell id="sA6tGmenvZJOmAFu46Z8-1" value="管理员" style="rounded=0;whiteSpace=wrap;html=1;" vertex="1" parent="1">
          <mxGeometry x="101" y="34" width="79" height="37" as="geometry" />
        </mxCell>
        <mxCell id="sA6tGmenvZJOmAFu46Z8-35" style="edgeStyle=orthogonalEdgeStyle;rounded=0;orthogonalLoop=1;jettySize=auto;html=1;" edge="1" parent="1" source="sA6tGmenvZJOmAFu46Z8-2" target="sA6tGmenvZJOmAFu46Z8-34">
          <mxGeometry relative="1" as="geometry" />
        </mxCell>
        <mxCell id="sA6tGmenvZJOmAFu46Z8-2" value="员工" style="rounded=0;whiteSpace=wrap;html=1;" vertex="1" parent="1">
          <mxGeometry x="742" y="193.5" width="79" height="37" as="geometry" />
        </mxCell>
        <mxCell id="sA6tGmenvZJOmAFu46Z8-17" style="edgeStyle=orthogonalEdgeStyle;rounded=0;orthogonalLoop=1;jettySize=auto;html=1;" edge="1" parent="1" source="sA6tGmenvZJOmAFu46Z8-3" target="sA6tGmenvZJOmAFu46Z8-16">
          <mxGeometry relative="1" as="geometry" />
        </mxCell>
        <mxCell id="sA6tGmenvZJOmAFu46Z8-21" style="edgeStyle=orthogonalEdgeStyle;rounded=0;orthogonalLoop=1;jettySize=auto;html=1;exitX=0.5;exitY=0;exitDx=0;exitDy=0;" edge="1" parent="1" source="sA6tGmenvZJOmAFu46Z8-3" target="sA6tGmenvZJOmAFu46Z8-20">
          <mxGeometry relative="1" as="geometry" />
        </mxCell>
        <mxCell id="sA6tGmenvZJOmAFu46Z8-25" style="edgeStyle=orthogonalEdgeStyle;rounded=0;orthogonalLoop=1;jettySize=auto;html=1;exitX=0.5;exitY=0;exitDx=0;exitDy=0;" edge="1" parent="1" source="sA6tGmenvZJOmAFu46Z8-3" target="sA6tGmenvZJOmAFu46Z8-24">
          <mxGeometry relative="1" as="geometry" />
        </mxCell>
        <mxCell id="sA6tGmenvZJOmAFu46Z8-3" value="供应商" style="rounded=0;whiteSpace=wrap;html=1;" vertex="1" parent="1">
          <mxGeometry x="397" y="669" width="79" height="37" as="geometry" />
        </mxCell>
        <mxCell id="sA6tGmenvZJOmAFu46Z8-6" value="物品表" style="shape=partialRectangle;whiteSpace=wrap;html=1;left=0;right=0;fillColor=none;" vertex="1" parent="1">
          <mxGeometry x="232" y="308" width="101" height="38" as="geometry" />
        </mxCell>
        <mxCell id="sA6tGmenvZJOmAFu46Z8-7" value="物品记录表" style="shape=partialRectangle;whiteSpace=wrap;html=1;left=0;right=0;fillColor=none;" vertex="1" parent="1">
          <mxGeometry x="386" y="370" width="101" height="38" as="geometry" />
        </mxCell>
        <mxCell id="sA6tGmenvZJOmAFu46Z8-8" value="api记录表" style="shape=partialRectangle;whiteSpace=wrap;html=1;left=0;right=0;fillColor=none;" vertex="1" parent="1">
          <mxGeometry x="540" y="422" width="101" height="38" as="geometry" />
        </mxCell>
        <mxCell id="sA6tGmenvZJOmAFu46Z8-9" value="日志表" style="shape=partialRectangle;whiteSpace=wrap;html=1;left=0;right=0;fillColor=none;" vertex="1" parent="1">
          <mxGeometry x="365" y="193.5" width="101" height="38" as="geometry" />
        </mxCell>
        <mxCell id="sA6tGmenvZJOmAFu46Z8-38" style="edgeStyle=orthogonalEdgeStyle;rounded=0;orthogonalLoop=1;jettySize=auto;html=1;endArrow=classic;endFill=1;startArrow=classic;startFill=1;" edge="1" parent="1" source="sA6tGmenvZJOmAFu46Z8-10" target="sA6tGmenvZJOmAFu46Z8-9">
          <mxGeometry relative="1" as="geometry" />
        </mxCell>
        <mxCell id="sA6tGmenvZJOmAFu46Z8-41" style="edgeStyle=orthogonalEdgeStyle;rounded=0;orthogonalLoop=1;jettySize=auto;html=1;entryX=0;entryY=0.5;entryDx=0;entryDy=0;exitX=0.5;exitY=1;exitDx=0;exitDy=0;endArrow=classic;endFill=1;startArrow=classic;startFill=1;" edge="1" parent="1" source="sA6tGmenvZJOmAFu46Z8-10" target="sA6tGmenvZJOmAFu46Z8-6">
          <mxGeometry relative="1" as="geometry" />
        </mxCell>
        <mxCell id="sA6tGmenvZJOmAFu46Z8-44" style="edgeStyle=orthogonalEdgeStyle;rounded=0;orthogonalLoop=1;jettySize=auto;html=1;endArrow=classic;endFill=1;startArrow=classic;startFill=1;" edge="1" parent="1" source="sA6tGmenvZJOmAFu46Z8-10" target="sA6tGmenvZJOmAFu46Z8-43">
          <mxGeometry relative="1" as="geometry" />
        </mxCell>
        <mxCell id="sA6tGmenvZJOmAFu46Z8-10" value="查看系统统计数据" style="ellipse;whiteSpace=wrap;html=1;aspect=fixed;" vertex="1" parent="1">
          <mxGeometry x="158" y="179" width="67" height="67" as="geometry" />
        </mxCell>
        <mxCell id="sA6tGmenvZJOmAFu46Z8-18" style="edgeStyle=orthogonalEdgeStyle;rounded=0;orthogonalLoop=1;jettySize=auto;html=1;entryX=0.5;entryY=1;entryDx=0;entryDy=0;endArrow=classic;endFill=1;startArrow=classic;startFill=1;" edge="1" parent="1" source="sA6tGmenvZJOmAFu46Z8-16" target="sA6tGmenvZJOmAFu46Z8-6">
          <mxGeometry relative="1" as="geometry" />
        </mxCell>
        <mxCell id="sA6tGmenvZJOmAFu46Z8-19" style="edgeStyle=orthogonalEdgeStyle;rounded=0;orthogonalLoop=1;jettySize=auto;html=1;entryX=0.5;entryY=1;entryDx=0;entryDy=0;exitX=0.5;exitY=0;exitDx=0;exitDy=0;endArrow=classic;endFill=1;startArrow=classic;startFill=1;" edge="1" parent="1" source="sA6tGmenvZJOmAFu46Z8-16" target="sA6tGmenvZJOmAFu46Z8-7">
          <mxGeometry relative="1" as="geometry" />
        </mxCell>
        <mxCell id="sA6tGmenvZJOmAFu46Z8-16" value="查看物品数据" style="ellipse;whiteSpace=wrap;html=1;aspect=fixed;" vertex="1" parent="1">
          <mxGeometry x="400" y="476.5" width="73" height="73" as="geometry" />
        </mxCell>
        <mxCell id="sA6tGmenvZJOmAFu46Z8-22" style="edgeStyle=orthogonalEdgeStyle;rounded=0;orthogonalLoop=1;jettySize=auto;html=1;entryX=0.5;entryY=1;entryDx=0;entryDy=0;endArrow=classic;endFill=1;startArrow=classic;startFill=1;" edge="1" parent="1" source="sA6tGmenvZJOmAFu46Z8-20" target="sA6tGmenvZJOmAFu46Z8-8">
          <mxGeometry relative="1" as="geometry" />
        </mxCell>
        <mxCell id="sA6tGmenvZJOmAFu46Z8-20" value="添加api访问记录" style="ellipse;whiteSpace=wrap;html=1;aspect=fixed;" vertex="1" parent="1">
          <mxGeometry x="554" y="516" width="73" height="73" as="geometry" />
        </mxCell>
        <mxCell id="sA6tGmenvZJOmAFu46Z8-23" value="api表" style="shape=partialRectangle;whiteSpace=wrap;html=1;left=0;right=0;fillColor=none;" vertex="1" parent="1">
          <mxGeometry x="101" y="494" width="101" height="38" as="geometry" />
        </mxCell>
        <mxCell id="sA6tGmenvZJOmAFu46Z8-26" style="edgeStyle=orthogonalEdgeStyle;rounded=0;orthogonalLoop=1;jettySize=auto;html=1;entryX=1;entryY=0.5;entryDx=0;entryDy=0;endArrow=classic;endFill=1;startArrow=classic;startFill=1;" edge="1" parent="1" source="sA6tGmenvZJOmAFu46Z8-24" target="sA6tGmenvZJOmAFu46Z8-23">
          <mxGeometry relative="1" as="geometry" />
        </mxCell>
        <mxCell id="sA6tGmenvZJOmAFu46Z8-24" value="修改api" style="ellipse;whiteSpace=wrap;html=1;aspect=fixed;" vertex="1" parent="1">
          <mxGeometry x="283" y="523" width="73" height="73" as="geometry" />
        </mxCell>
        <mxCell id="sA6tGmenvZJOmAFu46Z8-29" style="edgeStyle=orthogonalEdgeStyle;rounded=0;orthogonalLoop=1;jettySize=auto;html=1;endArrow=classic;endFill=1;startArrow=classic;startFill=1;" edge="1" parent="1" source="sA6tGmenvZJOmAFu46Z8-27" target="sA6tGmenvZJOmAFu46Z8-23">
          <mxGeometry relative="1" as="geometry" />
        </mxCell>
        <mxCell id="sA6tGmenvZJOmAFu46Z8-27" value="修改api" style="ellipse;whiteSpace=wrap;html=1;aspect=fixed;" vertex="1" parent="1">
          <mxGeometry x="62" y="179" width="73" height="73" as="geometry" />
        </mxCell>
        <mxCell id="sA6tGmenvZJOmAFu46Z8-30" value="供应商信息表" style="shape=partialRectangle;whiteSpace=wrap;html=1;left=0;right=0;fillColor=none;" vertex="1" parent="1">
          <mxGeometry x="392" y="111" width="101" height="38" as="geometry" />
        </mxCell>
        <mxCell id="sA6tGmenvZJOmAFu46Z8-33" style="edgeStyle=orthogonalEdgeStyle;rounded=0;orthogonalLoop=1;jettySize=auto;html=1;endArrow=classic;endFill=1;startArrow=classic;startFill=1;" edge="1" parent="1" source="sA6tGmenvZJOmAFu46Z8-31" target="sA6tGmenvZJOmAFu46Z8-30">
          <mxGeometry relative="1" as="geometry" />
        </mxCell>
        <mxCell id="sA6tGmenvZJOmAFu46Z8-31" value="管理供应商信息" style="ellipse;whiteSpace=wrap;html=1;aspect=fixed;" vertex="1" parent="1">
          <mxGeometry x="406" y="-24" width="73" height="73" as="geometry" />
        </mxCell>
        <mxCell id="sA6tGmenvZJOmAFu46Z8-39" style="edgeStyle=orthogonalEdgeStyle;rounded=0;orthogonalLoop=1;jettySize=auto;html=1;entryX=1;entryY=0.5;entryDx=0;entryDy=0;" edge="1" parent="1" source="sA6tGmenvZJOmAFu46Z8-34" target="sA6tGmenvZJOmAFu46Z8-9">
          <mxGeometry relative="1" as="geometry" />
        </mxCell>
        <mxCell id="sA6tGmenvZJOmAFu46Z8-45" style="edgeStyle=orthogonalEdgeStyle;rounded=0;orthogonalLoop=1;jettySize=auto;html=1;entryX=1;entryY=0.5;entryDx=0;entryDy=0;endArrow=classic;endFill=1;startArrow=classic;startFill=1;" edge="1" parent="1" source="sA6tGmenvZJOmAFu46Z8-34" target="sA6tGmenvZJOmAFu46Z8-7">
          <mxGeometry relative="1" as="geometry" />
        </mxCell>
        <mxCell id="sA6tGmenvZJOmAFu46Z8-46" style="edgeStyle=orthogonalEdgeStyle;rounded=0;orthogonalLoop=1;jettySize=auto;html=1;entryX=1;entryY=0.5;entryDx=0;entryDy=0;endArrow=classic;endFill=1;startArrow=classic;startFill=1;" edge="1" parent="1" source="sA6tGmenvZJOmAFu46Z8-34" target="sA6tGmenvZJOmAFu46Z8-6">
          <mxGeometry relative="1" as="geometry">
            <Array as="points">
              <mxPoint x="515" y="212" />
              <mxPoint x="515" y="327" />
            </Array>
          </mxGeometry>
        </mxCell>
        <mxCell id="sA6tGmenvZJOmAFu46Z8-34" value="添加物品数据" style="ellipse;whiteSpace=wrap;html=1;aspect=fixed;" vertex="1" parent="1">
          <mxGeometry x="617" y="176" width="73" height="73" as="geometry" />
        </mxCell>
        <mxCell id="sA6tGmenvZJOmAFu46Z8-43" value="api记录表" style="shape=partialRectangle;whiteSpace=wrap;html=1;left=0;right=0;fillColor=none;" vertex="1" parent="1">
          <mxGeometry x="239" y="102" width="101" height="38" as="geometry" />
        </mxCell>
        <mxCell id="sA6tGmenvZJOmAFu46Z8-47" value="修改数据" style="text;html=1;align=center;verticalAlign=middle;resizable=0;points=[];autosize=1;strokeColor=none;fillColor=none;" vertex="1" parent="1">
          <mxGeometry x="70" y="420" width="66" height="26" as="geometry" />
        </mxCell>
        <mxCell id="sA6tGmenvZJOmAFu46Z8-48" value="修改数据" style="text;html=1;align=center;verticalAlign=middle;resizable=0;points=[];autosize=1;strokeColor=none;fillColor=none;" vertex="1" parent="1">
          <mxGeometry x="269" y="14" width="66" height="26" as="geometry" />
        </mxCell>
        <mxCell id="sA6tGmenvZJOmAFu46Z8-49" value="修改数据" style="text;html=1;align=center;verticalAlign=middle;resizable=0;points=[];autosize=1;strokeColor=none;fillColor=none;" vertex="1" parent="1">
          <mxGeometry x="346" y="295" width="66" height="26" as="geometry" />
        </mxCell>
        <mxCell id="sA6tGmenvZJOmAFu46Z8-50" value="查看数据" style="text;html=1;align=center;verticalAlign=middle;resizable=0;points=[];autosize=1;strokeColor=none;fillColor=none;" vertex="1" parent="1">
          <mxGeometry x="148" y="265" width="66" height="26" as="geometry" />
        </mxCell>
        <mxCell id="sA6tGmenvZJOmAFu46Z8-51" value="查看数据" style="text;html=1;align=center;verticalAlign=middle;resizable=0;points=[];autosize=1;strokeColor=none;fillColor=none;" vertex="1" parent="1">
          <mxGeometry x="207" y="410" width="66" height="26" as="geometry" />
        </mxCell>
        <mxCell id="sA6tGmenvZJOmAFu46Z8-52" value="查看数据" style="text;html=1;align=center;verticalAlign=middle;resizable=0;points=[];autosize=1;strokeColor=none;fillColor=none;" vertex="1" parent="1">
          <mxGeometry x="219" y="163" width="66" height="26" as="geometry" />
        </mxCell>
        <mxCell id="sA6tGmenvZJOmAFu46Z8-55" value="查看数据" style="text;html=1;align=center;verticalAlign=middle;resizable=0;points=[];autosize=1;strokeColor=none;fillColor=none;" vertex="1" parent="1">
          <mxGeometry x="290" y="220" width="66" height="26" as="geometry" />
        </mxCell>
        <mxCell id="sA6tGmenvZJOmAFu46Z8-56" value="添加数据" style="text;html=1;align=center;verticalAlign=middle;resizable=0;points=[];autosize=1;strokeColor=none;fillColor=none;" vertex="1" parent="1">
          <mxGeometry x="557.5" y="299" width="66" height="26" as="geometry" />
        </mxCell>
        <mxCell id="sA6tGmenvZJOmAFu46Z8-57" value="添加数据" style="text;html=1;align=center;verticalAlign=middle;resizable=0;points=[];autosize=1;strokeColor=none;fillColor=none;" vertex="1" parent="1">
          <mxGeometry x="610" y="485" width="66" height="26" as="geometry" />
        </mxCell>
        <mxCell id="sA6tGmenvZJOmAFu46Z8-58" value="添加数据" style="text;html=1;align=center;verticalAlign=middle;resizable=0;points=[];autosize=1;strokeColor=none;fillColor=none;" vertex="1" parent="1">
          <mxGeometry x="482" y="176" width="66" height="26" as="geometry" />
        </mxCell>
        <mxCell id="sA6tGmenvZJOmAFu46Z8-59" value="查看数据" style="text;html=1;align=center;verticalAlign=middle;resizable=0;points=[];autosize=1;strokeColor=none;fillColor=none;" vertex="1" parent="1">
          <mxGeometry x="368" y="434" width="66" height="26" as="geometry" />
        </mxCell>
        <mxCell id="sA6tGmenvZJOmAFu46Z8-60" value="修改数据" style="text;html=1;align=center;verticalAlign=middle;resizable=0;points=[];autosize=1;strokeColor=none;fillColor=none;" vertex="1" parent="1">
          <mxGeometry x="207" y="570" width="66" height="26" as="geometry" />
        </mxCell>
      </root>
    </mxGraphModel>
  </diagram>
</mxfile>
